<?xml version="1.0" encoding="UTF-8" standalone="no"?>
<!-- Created with Inkscape (http://www.inkscape.org/) -->

<svg
   width="256mm"
   height="256mm"
   viewBox="0 0 256 256"
   version="1.1"
   id="svg619"
   inkscape:version="1.2.2 (b0a8486541, 2022-12-01)"
   sodipodi:docname="exclamation.svg"
   xmlns:inkscape="http://www.inkscape.org/namespaces/inkscape"
   xmlns:sodipodi="http://sodipodi.sourceforge.net/DTD/sodipodi-0.dtd"
   xmlns="http://www.w3.org/2000/svg"
   xmlns:svg="http://www.w3.org/2000/svg">
  <sodipodi:namedview
     id="namedview621"
     pagecolor="#ffffff"
     bordercolor="#000000"
     borderopacity="0.25"
     inkscape:showpageshadow="2"
     inkscape:pageopacity="0.0"
     inkscape:pagecheckerboard="0"
     inkscape:deskcolor="#d1d1d1"
     inkscape:document-units="mm"
     showgrid="false"
     inkscape:zoom="0.914906"
     inkscape:cx="325.71652"
     inkscape:cy="514.80698"
     inkscape:window-width="3840"
     inkscape:window-height="2054"
     inkscape:window-x="-11"
     inkscape:window-y="538"
     inkscape:window-maximized="1"
     inkscape:current-layer="layer1" />
  <defs
     id="defs616" />
  <g
     inkscape:label="Capa 1"
     inkscape:groupmode="layer"
     id="layer1"
     transform="translate(-18.918677,-12.003196)">
    <path
       style="fill:#aa0000;stroke-width:0.236624"
       d="m 135.56333,245.24613 c -4.96412,-0.88679 -9.6555,-3.19728 -13.4728,-6.6353 -4.47959,-4.03453 -7.59568,-9.42032 -8.71878,-15.06942 -0.62099,-3.12352 -0.36935,-9.54981 0.48872,-12.48084 1.38808,-4.74144 3.64096,-8.41524 7.30213,-11.90768 4.55717,-4.34713 9.3164,-6.58805 15.84795,-7.46215 0.9617,-0.12869 2.54733,-0.53288 3.52363,-0.89818 3.57796,-1.33877 4.79351,-1.53137 9.55135,-1.51332 3.68687,0.014 4.67135,0.0943 6.26567,0.51098 9.58801,2.50599 17.08943,10.53036 18.77408,20.08288 0.5407,3.06592 0.39224,7.34912 -0.34917,10.07451 -1.49391,5.49141 -4.71101,10.11371 -9.48486,13.62777 -1.1458,0.84343 -3.45019,2.77109 -5.12087,4.28367 -4.22179,3.82229 -6.98429,5.43234 -11.90742,6.93989 -1.88051,0.57585 -2.45746,0.63931 -6.43972,0.70829 -3.11572,0.054 -4.91667,-0.0211 -6.25991,-0.2611 z"
       id="path274" />
    <path
       style="fill:#aa0000;stroke-width:0.236624"
       d="m 129.91583,184.28939 c -0.79288,-0.44304 -2.08257,-1.66427 -2.43953,-2.31003 -0.40925,-0.74033 -0.9161,-5.12863 -2.79134,-24.16725 -0.80507,-8.1737 -2.22944,-22.53381 -3.16525,-31.91137 -3.60156,-36.090418 -3.51417,-34.868554 -2.61868,-36.616177 l 0.52811,-1.030629 -0.63603,-0.876389 c -0.93028,-1.281846 -1.13656,-1.937586 -1.65278,-5.254123 -0.60992,-3.918483 -0.60636,-5.63746 0.0141,-6.790553 0.2654,-0.49325 0.59347,-0.961813 0.72903,-1.041251 0.45426,-0.266185 0.25303,-0.860933 -0.59097,-1.746702 -1.00136,-1.050904 -1.21659,-1.745883 -1.70527,-5.506272 -0.57215,-4.402709 -0.50805,-6.452037 0.24594,-7.86281 l 0.61933,-1.158808 -0.7306,-0.788962 c -0.40184,-0.433935 -0.84058,-1.179142 -0.97497,-1.65602 -0.437,-1.550596 -1.47701,-11.170779 -1.47616,-13.654638 0.001,-3.746489 0.46618,-4.225501 5.5882,-5.757823 4.86129,-1.45432 37.8025,-10.242698 44.95656,-11.993951 3.1182,-0.763309 4.20243,-0.598579 5.62026,0.853895 1.22828,1.258309 1.26288,1.451444 1.07636,6.009584 -0.21964,5.36782 -0.22385,5.358528 2.43387,5.358528 2.04472,0 2.86929,0.296327 3.8268,1.375262 1.19647,1.348183 1.23667,0.565062 -1.29557,25.236741 -0.79342,7.730155 -3.03343,29.659135 -4.97781,48.731068 -1.94439,19.07194 -4.18874,41.08301 -4.98745,48.9135 -1.56092,15.30322 -1.80659,17.21532 -2.33757,18.1935 -0.61929,1.14089 -2.02349,1.80025 -4.63455,2.17621 -1.30851,0.18841 -3.63825,0.63848 -5.17721,1.00016 -1.77802,0.41785 -5.54322,0.96147 -10.32786,1.4911 -8.70174,0.96325 -12.40261,1.18448 -13.11894,0.78421 z"
       id="path345" />
  </g>
</svg>
